<?xml version="1.0" encoding="UTF-8" standalone="no"?>
<svg width="375" height="812" viewBox="0 0 375 812" fill="none" xmlns="http://www.w3.org/2000/svg" style="background-color:#000000; border-radius:48px;">
  
  <defs>
    <style>
      @import url('https://fonts.googleapis.com/css2?family=Poppins:wght@400;600;700&amp;family=Inter:wght@400;500;600&amp;display=swap');
      .title-pop { font-family: 'Poppins', sans-serif; font-weight: 700; fill: #2E7D32; }
      .body-int { font-family: 'Inter', sans-serif; font-weight: 400; fill: #263238; }
      .body-int-med { font-family: 'Inter', sans-serif; font-weight: 500; fill: #263238; }
      .body-int-semi { font-family: 'Inter', sans-serif; font-weight: 600; fill: #263238; }
      .muted { fill: #546E7A; }
      .white-text { fill: #FFFFFF; }
      .accent-text { fill: #FF9800; }
      .shadow-filter { filter: drop-shadow(0px 8px 24px rgba(46, 125, 50, 0.08)); }
      .shadow-medium { filter: drop-shadow(0px 12px 32px rgba(46, 125, 50, 0.12)); }
    </style>
    <clipPath id="screen-clip">
      <rect x="0" y="0" width="375" height="812" rx="40" />
    </clipPath>
    <linearGradient id="gradient-orange" x1="0%" y1="0%" x2="100%" y2="100%">
      <stop offset="0%" stop-color="#FF9800" />
      <stop offset="100%" stop-color="#F57C00" />
    </linearGradient>
    <linearGradient id="gradient-green" x1="0%" y1="0%" x2="100%" y2="100%">
      <stop offset="0%" stop-color="#2E7D32" />
      <stop offset="100%" stop-color="#1B5E20" />
    </linearGradient>
  </defs>

  <!-- Outer Device Mockup Frame -->
  <rect x="0" y="0" width="375" height="812" rx="40" fill="#FFF8E7" />
  
  <!-- Content Area clipped for rounded mobile corners -->
  <g clip-path="url(#screen-clip)">
    
  <!-- Cover Graphic -->
  <g id="Cover_Screen">
    <!-- Leaves Background Patterns -->
    <path d="M375 100 C320 80, 280 150, 300 200 C320 250, 380 220, 375 100 Z" fill="#81C784" opacity="0.15" />
    <path d="M0 700 C60 720, 100 650, 80 600 C60 550, 0 580, 0 700 Z" fill="#2E7D32" opacity="0.1" />
    
    <!-- Central Logo -->
    <g transform="translate(147, 120)">
      <circle cx="40" cy="40" r="40" fill="#FFFFFF" class="shadow-filter" />
      <path d="M40 20 C28.95 20 20 28.95 20 40 C20 45.5 22.25 50.5 25.86 54.14 C29.47 50.5 35 47 40 47 C45 47 50.53 50.5 54.14 54.14 C57.75 50.5 60 45.5 60 40 C60 28.95 51.05 20 40 20 Z" fill="#2E7D32" />
      <circle cx="40" cy="35" r="5" fill="#FF9800" />
    </g>
    
    <!-- App Names -->
    <text x="187" y="240" text-anchor="middle" font-size="28" class="title-pop">GreenLife Café</text>
    <text x="187" y="265" text-anchor="middle" font-size="12" class="body-int muted" letter-spacing="3">FRESH • HEALTHY • DELICIOUS</text>
    
    <!-- Hero Salad Illustration -->
    <g transform="translate(67, 320)">
      <circle cx="120" cy="120" r="110" fill="#FFFFFF" class="shadow-medium" />
      <!-- Stylized Salad Bowl -->
      <circle cx="120" cy="120" r="90" fill="#E8F5E9" />
      <!-- Salad Greens -->
      <circle cx="100" cy="100" r="30" fill="#81C784" opacity="0.8" />
      <circle cx="140" cy="110" r="25" fill="#4CAF50" opacity="0.9" />
      <circle cx="110" cy="140" r="35" fill="#2E7D32" opacity="0.7" />
      <!-- Tomato Slices -->
      <circle cx="95" cy="130" r="12" fill="#E53935" />
      <circle cx="95" cy="130" r="8" fill="#FF8A80" />
      <circle cx="145" cy="135" r="12" fill="#E53935" />
      <!-- Orange segment / Dressing -->
      <path d="M120 70 Q130 90 120 110" stroke="#FF9800" stroke-width="6" stroke-linecap="round" fill="none" />
      <circle cx="120" cy="120" r="10" fill="#FFB74D" />
    </g>
    
    <!-- Start Exploring CTA Button -->
    <g transform="translate(47, 650)">
      <rect x="0" y="0" width="280" height="56" rx="28" fill="url(#gradient-orange)" class="shadow-medium" />
      <text x="140" y="34" text-anchor="middle" font-size="16" font-family="'Poppins', sans-serif" font-weight="600" class="white-text">Start Exploring</text>
    </g>
  </g>

    
    <!-- Top Notch -->
    <rect x="112" y="0" width="150" height="30" rx="15" fill="#000000" />
    
    <!-- Status Bar Icons -->
    <text x="36" y="20" font-family="'Inter', sans-serif" font-weight="600" font-size="12" fill="#263238">9:41</text>
    <path d="M320 12h12v12h-12z" fill="#263238" opacity="0.1" /> <!-- Battery placeholder -->
    <circle cx="340" cy="18" r="3" fill="#263238" />
    
    <!-- Bottom Indicator -->
    <rect x="120" y="798" width="135" height="5" rx="2.5" fill="#263238" opacity="0.3" />
  </g>
</svg>
