<?xml version="1.0" encoding="UTF-8" standalone="no"?>
<svg width="375" height="812" viewBox="0 0 375 812" fill="none" xmlns="http://www.w3.org/2000/svg" style="background-color:#000000; border-radius:48px;">
  
  <defs>
    <style>
      @import url('https://fonts.googleapis.com/css2?family=Poppins:wght@400;600;700&amp;family=Inter:wght@400;500;600&amp;display=swap');
      .title-pop { font-family: 'Poppins', sans-serif; font-weight: 700; fill: #2E7D32; }
      .body-int { font-family: 'Inter', sans-serif; font-weight: 400; fill: #263238; }
      .body-int-med { font-family: 'Inter', sans-serif; font-weight: 500; fill: #263238; }
      .body-int-semi { font-family: 'Inter', sans-serif; font-weight: 600; fill: #263238; }
      .muted { fill: #546E7A; }
      .white-text { fill: #FFFFFF; }
      .accent-text { fill: #FF9800; }
      .shadow-filter { filter: drop-shadow(0px 8px 24px rgba(46, 125, 50, 0.08)); }
      .shadow-medium { filter: drop-shadow(0px 12px 32px rgba(46, 125, 50, 0.12)); }
    </style>
    <clipPath id="screen-clip">
      <rect x="0" y="0" width="375" height="812" rx="40" />
    </clipPath>
    <linearGradient id="gradient-orange" x1="0%" y1="0%" x2="100%" y2="100%">
      <stop offset="0%" stop-color="#FF9800" />
      <stop offset="100%" stop-color="#F57C00" />
    </linearGradient>
    <linearGradient id="gradient-green" x1="0%" y1="0%" x2="100%" y2="100%">
      <stop offset="0%" stop-color="#2E7D32" />
      <stop offset="100%" stop-color="#1B5E20" />
    </linearGradient>
  </defs>

  <!-- Outer Device Mockup Frame -->
  <rect x="0" y="0" width="375" height="812" rx="40" fill="#FFF8E7" />
  
  <!-- Content Area clipped for rounded mobile corners -->
  <g clip-path="url(#screen-clip)">
    
  <g id="Categories_Screen">
    <!-- Header -->
    <text x="20" y="100" font-size="22" class="title-pop">What would you like?</text>
    <text x="20" y="120" font-size="12" class="body-int muted">Choose healthy fresh choices</text>
    
    <!-- Cards grid layout -->
    <!-- 1. Salads Card -->
    <g transform="translate(20, 150)" class="interactive-hotspot">
      <rect x="0" y="0" width="160" height="150" rx="20" fill="#FFFFFF" class="shadow-filter" />
      <rect x="0" y="0" width="160" height="95" rx="20" fill="#E8F5E9" />
      <!-- salad graphic -->
      <circle cx="80" cy="48" r="30" fill="#81C784" />
      <text x="80" y="125" text-anchor="middle" font-size="13" class="body-int-semi">Healthy Salads</text>
    </g>
    
    <!-- 2. Burgers Card -->
    <g transform="translate(195, 150)" class="interactive-hotspot">
      <rect x="0" y="0" width="160" height="150" rx="20" fill="#FFFFFF" class="shadow-filter" />
      <rect x="0" y="0" width="160" height="95" rx="20" fill="#FFE0B2" />
      <!-- burger graphic -->
      <circle cx="80" cy="48" r="30" fill="#FFB74D" />
      <text x="80" y="125" text-anchor="middle" font-size="13" class="body-int-semi">Gourmet Burgers</text>
    </g>

    <!-- 3. Pizza Card -->
    <g transform="translate(20, 320)" class="interactive-hotspot">
      <rect x="0" y="0" width="160" height="150" rx="20" fill="#FFFFFF" class="shadow-filter" />
      <rect x="0" y="0" width="160" height="95" rx="20" fill="#FFCCBC" />
      <!-- pizza graphic -->
      <circle cx="80" cy="48" r="30" fill="#FF8A65" />
      <text x="80" y="125" text-anchor="middle" font-size="13" class="body-int-semi">Wood-Fired Pizza</text>
    </g>

    <!-- 4. Drinks Card -->
    <g transform="translate(195, 320)" class="interactive-hotspot">
      <rect x="0" y="0" width="160" height="150" rx="20" fill="#FFFFFF" class="shadow-filter" />
      <rect x="0" y="0" width="160" height="95" rx="20" fill="#E1F5FE" />
      <!-- juice graphic -->
      <circle cx="80" cy="48" r="30" fill="#4FC3F7" />
      <text x="80" y="125" text-anchor="middle" font-size="13" class="body-int-semi">Fresh Juices</text>
    </g>

    <!-- 5. Desserts Card -->
    <g transform="translate(20, 490)" class="interactive-hotspot">
      <rect x="0" y="0" width="160" height="150" rx="20" fill="#FFFFFF" class="shadow-filter" />
      <rect x="0" y="0" width="160" height="95" rx="20" fill="#F3E5F5" />
      <!-- dessert graphic -->
      <circle cx="80" cy="48" r="30" fill="#BA68C8" />
      <text x="80" y="125" text-anchor="middle" font-size="13" class="body-int-semi">Organic Desserts</text>
    </g>
    
    <!-- App bottom navigation mockup -->
    <g transform="translate(0, 715)">
      <rect x="0" y="0" width="375" height="64" fill="#FFFFFF" class="shadow-medium" />
      <!-- Menu Item -->
      <g transform="translate(47, 10)">
        <circle cx="12" cy="12" r="12" fill="#2E7D32" opacity="0.1" />
        <text x="12" y="38" text-anchor="middle" font-size="10" class="body-int-semi" fill="#2E7D32">Menu</text>
      </g>
      <!-- Reserve Item -->
      <g transform="translate(167, 10)">
        <circle cx="12" cy="12" r="12" fill="#263238" opacity="0.05" />
        <text x="12" y="38" text-anchor="middle" font-size="10" class="body-int muted">Reserve</text>
      </g>
      <!-- About Story Item -->
      <g transform="translate(287, 10)">
        <circle cx="12" cy="12" r="12" fill="#263238" opacity="0.05" />
        <text x="12" y="38" text-anchor="middle" font-size="10" class="body-int muted">Story</text>
      </g>
    </g>
  </g>

    
    <!-- Top Notch -->
    <rect x="112" y="0" width="150" height="30" rx="15" fill="#000000" />
    
    <!-- Status Bar Icons -->
    <text x="36" y="20" font-family="'Inter', sans-serif" font-weight="600" font-size="12" fill="#263238">9:41</text>
    <path d="M320 12h12v12h-12z" fill="#263238" opacity="0.1" /> <!-- Battery placeholder -->
    <circle cx="340" cy="18" r="3" fill="#263238" />
    
    <!-- Bottom Indicator -->
    <rect x="120" y="798" width="135" height="5" rx="2.5" fill="#263238" opacity="0.3" />
  </g>
</svg>
