<?xml version="1.0" encoding="UTF-8" standalone="no"?>
<svg width="1440" height="900" viewBox="0 0 1440 900" fill="none" xmlns="http://www.w3.org/2000/svg" style="background-color:#FFF8E7;">
  
  <defs>
    <style>
      @import url('https://fonts.googleapis.com/css2?family=Poppins:wght@400;600;700&amp;family=Inter:wght@400;500;600&amp;display=swap');
      .slide-title { font-family: 'Poppins', sans-serif; font-weight: 700; fill: #2E7D32; font-size: 36px; }
      .slide-subtitle { font-family: 'Poppins', sans-serif; font-weight: 600; fill: #FF9800; font-size: 16px; letter-spacing: 2px; text-transform: uppercase; }
      .slide-body { font-family: 'Inter', sans-serif; font-weight: 400; fill: #263238; font-size: 15px; }
      .slide-body-bold { font-family: 'Inter', sans-serif; font-weight: 600; fill: #263238; font-size: 15px; }
      .slide-muted { fill: #546E7A; font-size: 13px; }
      .phone-frame-bg { fill: #FFF8E7; }
      .accent-btn-fill { fill: url(#orange-grad); }
      .green-btn-fill { fill: url(#green-grad); }
      .white-text { fill: #FFFFFF; }
      .drop-shadow { filter: drop-shadow(0px 10px 30px rgba(46,125,50,0.06)); }
    </style>
    <linearGradient id="orange-grad" x1="0%" y1="0%" x2="100%" y2="100%">
      <stop offset="0%" stop-color="#FF9800" />
      <stop offset="100%" stop-color="#F57C00" />
    </linearGradient>
    <linearGradient id="green-grad" x1="0%" y1="0%" x2="100%" y2="100%">
      <stop offset="0%" stop-color="#2E7D32" />
      <stop offset="100%" stop-color="#1B5E20" />
    </linearGradient>
    <clipPath id="iphone-screen">
      <rect x="0" y="0" width="375" height="812" rx="40" />
    </clipPath>
  </defs>

  <!-- Outer slide deck background card -->
  <rect x="0" y="0" width="1440" height="900" rx="32" fill="#FFFFFF" />
  
  <!-- Content -->
  
  <g transform="translate(80, 100)">
    <text x="0" y="30" class="slide-subtitle">15 — INTERACTIVE PROTOTYPE WIRES</text>
    <text x="0" y="70" class="slide-title">Hotspots Flow Connections Map</text>
    <text x="0" y="110" class="slide-body" fill="#546E7A">
      <tspan x="0" dy="0">Dashed connection wires illustrating Figma Smart Animate flows</tspan>
      <tspan x="0" dy="20">from Cover Screen to Cart Preorder and Table Booking Success page.</tspan>
    </text>
  </g>

  <!-- Flow Wires Diagram -->
  <!-- 1. Cover mini-device -->
  <g transform="translate(80, 200)" scale="0.45">
    <rect x="0" y="0" width="375" height="812" rx="40" fill="#FFF8E7" stroke="#2E7D32" stroke-width="4" />
    <text x="187" y="150" text-anchor="middle" font-size="28" class="title-pop">Cover</text>
    <rect x="47" y="650" width="280" height="52" rx="26" fill="#FF9800" id="Cover_Start_Btn" />
    <text x="187" y="682" text-anchor="middle" font-size="18" class="white-text body-int-semi">Start Exploring</text>
  </g>

  <!-- 2. About mini-device -->
  <g transform="translate(340, 200)" scale="0.45">
    <rect x="0" y="0" width="375" height="812" rx="40" fill="#FFF8E7" stroke="#2E7D32" stroke-width="4" />
    <text x="187" y="150" text-anchor="middle" font-size="28" class="title-pop">About</text>
    <rect x="20" y="600" width="335" height="52" rx="26" fill="#2E7D32" id="About_Menu_Btn" />
    <text x="187" y="632" text-anchor="middle" font-size="18" class="white-text body-int-semi">Explore Menu</text>
  </g>

  <!-- 3. Categories mini-device -->
  <g transform="translate(600, 200)" scale="0.45">
    <rect x="0" y="0" width="375" height="812" rx="40" fill="#FFF8E7" stroke="#2E7D32" stroke-width="4" />
    <text x="187" y="150" text-anchor="middle" font-size="28" class="title-pop">Categories</text>
    <rect x="20" y="240" width="160" height="150" rx="20" fill="#FFFFFF" stroke="#81C784" />
    <text x="100" y="320" text-anchor="middle" font-size="18" class="body-int-semi">Salads</text>
  </g>

  <!-- 4. Reservation mini-device -->
  <g transform="translate(860, 200)" scale="0.45">
    <rect x="0" y="0" width="375" height="812" rx="40" fill="#FFF8E7" stroke="#2E7D32" stroke-width="4" />
    <text x="187" y="150" text-anchor="middle" font-size="28" class="title-pop">Reserve</text>
    <rect x="20" y="650" width="335" height="52" rx="26" fill="#FF9800" id="Res_Book_Btn" />
    <text x="187" y="682" text-anchor="middle" font-size="18" class="white-text body-int-semi">Book Table</text>
  </g>

  <!-- 5. Success mini-device -->
  <g transform="translate(1120, 200)" scale="0.45">
    <rect x="0" y="0" width="375" height="812" rx="40" fill="#FFF8E7" stroke="#2E7D32" stroke-width="4" />
    <text x="187" y="150" text-anchor="middle" font-size="28" class="title-pop">Success</text>
    <circle cx="187" cy="300" r="50" fill="#2E7D32" />
  </g>

  <!-- Flow Wires (Dashed Lines with arrows) -->
  <g>
    <!-- Cover -> About -->
    <path d="M228 506 L340 480" stroke="#FF9800" stroke-width="3" stroke-dasharray="8 6" fill="none" />
    <polygon points="340,480 330,475 332,485" fill="#FF9800" />
    
    <!-- About -> Categories -->
    <path d="M488 483 L600 310" stroke="#2E7D32" stroke-width="3" stroke-dasharray="8 6" fill="none" />
    <polygon points="600,310 590,312 596,320" fill="#2E7D32" />

    <!-- Categories -> Reservation (Direct / Cart flow shortcut) -->
    <path d="M748 310 L860 500" stroke="#2E7D32" stroke-width="3" stroke-dasharray="8 6" fill="none" />
    <polygon points="860,500 850,496 855,505" fill="#2E7D32" />

    <!-- Reservation -> Success -->
    <path d="M1010 500 L1120 335" stroke="#FF9800" stroke-width="3" stroke-dasharray="8 6" fill="none" />
    <polygon points="1120,335 1110,336 1116,344" fill="#FF9800" />
  </g>

  
  <!-- Slide footer bar metadata -->
  <g transform="translate(80, 840)">
    <line x1="0" y1="0" x2="1280" y2="0" stroke="#E8F5E9" stroke-width="2" />
    <text x="0" y="24" font-family="'Poppins', sans-serif" font-weight="600" font-size="12" fill="#FF9800">GREENLIFE CAFÉ</text>
    <text x="140" y="24" font-family="'Inter', sans-serif" font-size="12" fill="#546E7A">Noor Mohamed Halith — UI/UX Portfolio Case Study</text>
    <text x="1280" y="24" text-anchor="end" font-family="'Poppins', sans-serif" font-weight="700" font-size="12" fill="#2E7D32">PAGE 15 OF 16</text>
  </g>
</svg>
