<?xml version="1.0" encoding="UTF-8"?>
<svg width="720" height="1660" viewBox="0 0 720 1660"
     fill="none" xmlns="http://www.w3.org/2000/svg"
     xmlns:xlink="http://www.w3.org/1999/xlink">
  <title>FlowSphere — Full Desktop Email (640px)</title>
  <defs>
    <style>
      @import url('https://fonts.googleapis.com/css2?family=Inter:wght@400;500;600;700;800;900&amp;display=swap');
      text { font-family: 'Inter', -apple-system, BlinkMacSystemFont, 'Segoe UI', sans-serif; }
    </style>
    <!-- Brand gradient -->
    <linearGradient id="grad-brand" x1="0%" y1="0%" x2="100%" y2="100%">
      <stop offset="0%"   stop-color="#6366F1"/>
      <stop offset="100%" stop-color="#8B5CF6"/>
    </linearGradient>
    <!-- Hero bg gradient -->
    <linearGradient id="grad-hero-bg" x1="0%" y1="0%" x2="100%" y2="100%">
      <stop offset="0%"   stop-color="#EEF2FF"/>
      <stop offset="100%" stop-color="#F5F3FF"/>
    </linearGradient>
    <!-- White fade gradient for offer orbs -->
    <radialGradient id="orb1" cx="50%" cy="50%" r="50%">
      <stop offset="0%"   stop-color="rgba(255,255,255,0.12)"/>
      <stop offset="100%" stop-color="rgba(255,255,255,0)"/>
    </radialGradient>
    <!-- Drop shadows -->
    <filter id="shadow-card" x="-8%" y="-8%" width="116%" height="116%">
      <feDropShadow dx="0" dy="2" stdDeviation="8" flood-color="rgba(99,102,241,0.10)"/>
    </filter>
    <filter id="shadow-btn" x="-20%" y="-40%" width="140%" height="180%">
      <feDropShadow dx="0" dy="6" stdDeviation="12" flood-color="rgba(99,102,241,0.35)"/>
    </filter>
    <filter id="shadow-float" x="-15%" y="-15%" width="130%" height="130%">
      <feDropShadow dx="0" dy="8" stdDeviation="20" flood-color="rgba(99,102,241,0.18)"/>
    </filter>
    <filter id="shadow-sm" x="-5%" y="-5%" width="110%" height="110%">
      <feDropShadow dx="0" dy="1" stdDeviation="3" flood-color="rgba(0,0,0,0.08)"/>
    </filter>
  </defs>

  <!-- Outer background -->
  <rect width="720" height="1660" fill="#EAECF8"/>

  <!-- Email container shadow -->
  <g filter="url(#shadow-float)" transform="translate(40,40)">
    <rect width="640" height="1580" rx="20" fill="#FFFFFF"/>
  </g>

  <!-- Email container clip -->
  <g transform="translate(40,40)">
    <clipPath id="email-clip"><rect width="640" height="1580" rx="20"/></clipPath>
    <g clip-path="url(#email-clip)">
      
  <g id="Section-Header">
    <rect width="640" height="70" fill="#FFFFFF" stroke="#E5E7EB" stroke-width="0" stroke-dasharray="0 0"/>
    <line x1="0" y1="69.5" x2="640" y2="69.5" stroke="#E5E7EB" stroke-width="1"/>
    
  <g id="Logo" transform="translate(24,17) scale(1)">
    <!-- Icon -->
    <rect width="36" height="36" rx="9" fill="url(#grad-brand)"/>
    <path d="M18 6L10 10V16C10 20.4183 13.5817 24 18 24C22.4183 24 26 20.4183 26 16V10L18 6Z" fill="white" fill-opacity="0.95"/>
    <path d="M15 16L17 18L21 14" stroke="white" stroke-width="2" stroke-linecap="round" stroke-linejoin="round"/>
    <!-- Wordmark -->
    <text x="44" y="22" font-size="17" font-weight="800" fill="#6366F1" letter-spacing="-0.4">FlowSphere</text>
    <text x="44" y="22" font-size="17" font-weight="800" fill="url(#grad-brand)" letter-spacing="-0.4">FlowSphere</text>
  </g>
    <!-- Nav links -->
    <g id="Nav">
      <text x="482" y="40" font-size="13" font-weight="500" fill="#6B7280">Features</text>
      <text x="537" y="40" font-size="13" font-weight="500" fill="#6B7280">Pricing</text>
      <text x="585"  y="40" font-size="13" font-weight="500" fill="#6B7280">Contact</text>
    </g>
  </g>
      
  <g id="Section-Hero" transform="translate(0,70)">
    <!-- BG -->
    <rect width="640" height="480" fill="url(#grad-hero-bg)"/>
    <!-- Decorative orbs -->
    <circle cx="580" cy="60" r="120" fill="url(#orb1)"/>
    <circle cx="60" cy="420" r="90"  fill="url(#orb1)"/>

    <!-- Launch badge -->
    <g id="Hero-Badge" transform="translate(320,48)" >
      <rect x="-100" y="-15" width="200" height="30" rx="15" fill="#FFFFFF" stroke="#EEF2FF" stroke-width="1.5"/>
      <circle cx="-82" cy="0" r="5" fill="#22C55E"/>
      <text x="-72" y="5" font-size="11" font-weight="600" fill="#6366F1">🚀  Product Launch — Now Live</text>
    </g>

    <!-- Title line 1 -->
    <text x="320" y="108" text-anchor="middle" font-size="34" font-weight="800" fill="#111827" letter-spacing="-0.8">Welcome to</text>
    <!-- Title line 2 — gradient -->
    <text x="320" y="150" text-anchor="middle" font-size="34" font-weight="800" fill="url(#grad-brand)" letter-spacing="-0.8">FlowSphere</text>

    <!-- Subtitle -->
    <text x="320" y="182" text-anchor="middle" font-size="15" font-weight="400" fill="#6B7280">Organize your work smarter and achieve more every day.</text>
    <text x="320" y="200" text-anchor="middle" font-size="15" font-weight="400" fill="#6B7280">The all-in-one productivity platform built for modern teams.</text>

    <!-- Dashboard Illustration -->
    <g id="Hero-Illustration" transform="translate(90, 220)" filter="url(#shadow-float)">
      <rect width="460" height="188" rx="14" fill="#F8FAFC"/>
      <!-- Sidebar -->
      <rect width="112" height="188" rx="14" fill="#FFFFFF"/>
      <rect x="10" y="12" width="92" height="32" rx="8" fill="#EEF2FF"/>
      <rect x="17" y="17" width="16" height="16" rx="5" fill="url(#grad-brand)"/>
      <rect x="38" y="21" width="48" height="7" rx="3" fill="#6366F1"/>
      <!-- sidebar nav dots -->
      <circle cx="22" cy="64" r="4" fill="#6366F1"/>
      <rect x="32" y="60" width="50" height="7" rx="3" fill="#6366F1" opacity="0.6"/>
      <circle cx="22" cy="84" r="4" fill="#8B5CF6" opacity="0.5"/>
      <rect x="32" y="80" width="38" height="7" rx="3" fill="#6B7280" opacity="0.35"/>
      <circle cx="22" cy="104" r="4" fill="#22C55E" opacity="0.7"/>
      <rect x="32" y="100" width="55" height="7" rx="3" fill="#6B7280" opacity="0.35"/>
      <circle cx="22" cy="124" r="4" fill="#F59E0B" opacity="0.6"/>
      <rect x="32" y="120" width="42" height="7" rx="3" fill="#6B7280" opacity="0.35"/>
      <!-- Main stats row -->
      <rect x="120" y="10" width="76" height="60" rx="10" fill="#FFFFFF" stroke="#E5E7EB" stroke-width="1"/>
      <rect x="130" y="20" width="40" height="6" rx="3" fill="#6B7280" opacity="0.3"/>
      <rect x="130" y="32" width="56" height="14" rx="4" fill="#6366F1" opacity="0.85"/>
      <rect x="130" y="52" width="28" height="6" rx="3" fill="#22C55E" opacity="0.7"/>
      <rect x="204" y="10" width="76" height="60" rx="10" fill="#FFFFFF" stroke="#E5E7EB" stroke-width="1"/>
      <rect x="214" y="20" width="50" height="6" rx="3" fill="#6B7280" opacity="0.3"/>
      <rect x="214" y="32" width="42" height="14" rx="4" fill="#8B5CF6" opacity="0.8"/>
      <rect x="214" y="52" width="34" height="6" rx="3" fill="#22C55E" opacity="0.7"/>
      <rect x="288" y="10" width="76" height="60" rx="10" fill="#FFFFFF" stroke="#E5E7EB" stroke-width="1"/>
      <rect x="298" y="20" width="56" height="6" rx="3" fill="#6B7280" opacity="0.3"/>
      <rect x="298" y="32" width="36" height="14" rx="4" fill="#22C55E" opacity="0.8"/>
      <rect x="298" y="52" width="44" height="6" rx="3" fill="#6B7280" opacity="0.3"/>
      <rect x="372" y="10" width="76" height="60" rx="10" fill="#EEF2FF" stroke="#6366F1" stroke-width="1"/>
      <rect x="382" y="26" width="56" height="6" rx="3" fill="#6366F1" opacity="0.5"/>
      <rect x="390" y="38" width="40" height="16" rx="5" fill="url(#grad-brand)"/>
      <!-- Task list -->
      <rect x="120" y="78" width="186" height="100" rx="10" fill="#FFFFFF" stroke="#E5E7EB" stroke-width="1"/>
      <rect x="132" y="89" width="72" height="8" rx="4" fill="#111827" opacity="0.7"/>
      <rect x="132" y="107" width="12" height="12" rx="3" fill="#6366F1"/>
      <rect x="150" y="109" width="100" height="7" rx="3" fill="#6B7280" opacity="0.4"/>
      <rect x="132" y="126" width="12" height="12" rx="3" fill="#22C55E"/>
      <rect x="150" y="128" width="80" height="7" rx="3" fill="#6B7280" opacity="0.4"/>
      <rect x="132" y="145" width="12" height="12" rx="3" fill="#F59E0B" opacity="0.8"/>
      <rect x="150" y="147" width="112" height="7" rx="3" fill="#6B7280" opacity="0.4"/>
      <!-- Chart panel -->
      <rect x="314" y="78" width="134" height="100" rx="10" fill="#FFFFFF" stroke="#E5E7EB" stroke-width="1"/>
      <rect x="326" y="89" width="64" height="8" rx="4" fill="#111827" opacity="0.7"/>
      <rect x="326" y="132" width="12" height="36" rx="3" fill="#6366F1" opacity="0.25"/>
      <rect x="344" y="120" width="12" height="48" rx="3" fill="#6366F1" opacity="0.45"/>
      <rect x="362" y="110" width="12" height="58" rx="3" fill="#6366F1" opacity="0.65"/>
      <rect x="380" y="104" width="12" height="64" rx="3" fill="#6366F1"/>
      <rect x="398" y="118" width="12" height="50" rx="3" fill="#8B5CF6" opacity="0.6"/>
      <polyline points="332,132 350,120 368,110 386,104 404,118" stroke="#22C55E" stroke-width="2" stroke-linecap="round" fill="none"/>
      <!-- Floating notification -->
      <g filter="url(#shadow-sm)">
        <rect x="190" y="108" width="136" height="46" rx="10" fill="#FFFFFF" stroke="#E5E7EB" stroke-width="0.5"/>
        <circle cx="208" cy="131" r="10" fill="#DCFCE7"/>
        <path d="M203 131l3.5 3.5 7-7" stroke="#22C55E" stroke-width="1.5" stroke-linecap="round" stroke-linejoin="round"/>
        <rect x="224" y="122" width="72" height="7" rx="3" fill="#111827" opacity="0.8"/>
        <rect x="224" y="134" width="90" height="6" rx="3" fill="#6B7280" opacity="0.4"/>
      </g>
    </g>

    <!-- CTA Button -->
    
  <g id="Button-Primary" transform="translate(230,418)" filter="url(#shadow-btn)">
    <rect width="180" height="46" rx="10" fill="url(#grad-brand)"/>
    <text x="90" y="28" text-anchor="middle" font-size="15" font-weight="600" fill="white">→  Get Started Free</text>
  </g>
  </g>
      
  <g id="Section-Features" transform="translate(0,550)">
    <rect width="640" height="240" fill="#FFFFFF"/>
    <!-- Eyebrow -->
    <text x="320" y="32" text-anchor="middle" font-size="10.5" font-weight="700" fill="#6366F1" letter-spacing="1.2">EVERYTHING YOU NEED</text>
    <!-- Title -->
    <text x="320" y="58" text-anchor="middle" font-size="24" font-weight="700" fill="#111827" letter-spacing="-0.3">Powerful Features</text>
    <!-- Subtitle -->
    <text x="320" y="78" text-anchor="middle" font-size="13" fill="#6B7280">Built for teams of all sizes to collaborate, track, and deliver.</text>

    <!-- Cards -->
    
  <g id="FeatureCard-SmartTask" transform="translate(40,96)" filter="url(#shadow-card)">
    <rect width="176" height="160" rx="14" fill="#F8FAFC" stroke="#E5E7EB" stroke-width="1"/>
    <!-- Icon bg -->
    <rect x="62" y="20" width="52" height="52" rx="10" fill="#EEF2FF"/>
    <!-- Icon -->
    <g transform="translate(75,33)"><rect width="26" height="3" rx="1.5" fill="#6366F1"/>
    <rect y="8" width="26" height="3" rx="1.5" fill="#6366F1" opacity="0.6"/>
    <rect y="16" width="18" height="3" rx="1.5" fill="#6366F1" opacity="0.35"/>
    <circle cx="24" cy="17" r="5" fill="#22C55E"/>
    <path d="M21.5 17l2 2 3-3" stroke="white" stroke-width="1.5" stroke-linecap="round" stroke-linejoin="round"/></g>
    <!-- Title -->
    <text x="88" y="96" text-anchor="middle" font-size="13" font-weight="700" fill="#111827">Smart Task</text>
    <!-- Desc -->
    <text x="88" y="113" text-anchor="middle" font-size="10.5" fill="#6B7280">AI-powered task</text>
    <text x="88" y="127" text-anchor="middle" font-size="10.5" fill="#6B7280">management.</text>
  </g>
    
  <g id="FeatureCard-TeamCollab" transform="translate(232,96)" filter="url(#shadow-card)">
    <rect width="176" height="160" rx="14" fill="#F8FAFC" stroke="#E5E7EB" stroke-width="1"/>
    <!-- Icon bg -->
    <rect x="62" y="20" width="52" height="52" rx="10" fill="#F5F3FF"/>
    <!-- Icon -->
    <g transform="translate(75,33)"><circle cx="10" cy="8" r="5" fill="#8B5CF6"/>
    <circle cx="20" cy="8" r="5" fill="#8B5CF6" opacity="0.5"/>
    <path d="M1 26C1 21 5 18 10 18c1.7 0 3.3.5 4.5 1.3" stroke="#8B5CF6" stroke-width="2" stroke-linecap="round"/>
    <path d="M25 26C25 21 21 18 16 18c-1.7 0-3.3.5-4.5 1.3" stroke="#8B5CF6" stroke-width="2" stroke-linecap="round" opacity="0.6"/></g>
    <!-- Title -->
    <text x="88" y="96" text-anchor="middle" font-size="13" font-weight="700" fill="#111827">Team Collab</text>
    <!-- Desc -->
    <text x="88" y="113" text-anchor="middle" font-size="10.5" fill="#6B7280">Real-time collab</text>
    <text x="88" y="127" text-anchor="middle" font-size="10.5" fill="#6B7280">anywhere.</text>
  </g>
    
  <g id="FeatureCard-Analytics" transform="translate(424,96)" filter="url(#shadow-card)">
    <rect width="176" height="160" rx="14" fill="#F8FAFC" stroke="#E5E7EB" stroke-width="1"/>
    <!-- Icon bg -->
    <rect x="62" y="20" width="52" height="52" rx="10" fill="#ECFDF5"/>
    <!-- Icon -->
    <g transform="translate(75,33)"><rect y="14" width="8" height="12" rx="2" fill="#22C55E" opacity="0.4"/>
    <rect x="10" y="10" width="8" height="16" rx="2" fill="#22C55E" opacity="0.65"/>
    <rect x="20" y="6" width="8" height="20" rx="2" fill="#22C55E"/>
    <polyline points="4,8 14,4 24,2" stroke="#16A34A" stroke-width="2" stroke-linecap="round" fill="none"/>
    <circle cx="4" cy="8" r="2" fill="#16A34A"/>
    <circle cx="14" cy="4" r="2" fill="#16A34A"/>
    <circle cx="24" cy="2" r="2" fill="#16A34A"/></g>
    <!-- Title -->
    <text x="88" y="96" text-anchor="middle" font-size="13" font-weight="700" fill="#111827">Analytics</text>
    <!-- Desc -->
    <text x="88" y="113" text-anchor="middle" font-size="10.5" fill="#6B7280">Deep productivity</text>
    <text x="88" y="127" text-anchor="middle" font-size="10.5" fill="#6B7280">insights.</text>
  </g>
  </g>
      <rect y="790" width="640" height="1" fill="#E5E7EB"/>
      
  <g id="Section-Special-Offer" transform="translate(0,791)">
    <rect width="640" height="200" fill="#FFFFFF"/>
    <!-- Offer card -->
    <rect x="24" y="16" width="592" height="168" rx="20" fill="url(#grad-brand)"/>
    <!-- Decorative orbs -->
    <circle cx="576" cy="40" r="100" fill="url(#orb1)"/>
    <circle cx="64"   cy="185" r="80"  fill="url(#orb1)"/>

    <!-- Limited time badge -->
    <rect x="246" y="28" width="148" height="24" rx="12" fill="rgba(255,255,255,0.18)" stroke="rgba(255,255,255,0.30)" stroke-width="1"/>
    <text x="320" y="44" text-anchor="middle" font-size="10.5" font-weight="700" fill="white" letter-spacing="0.3">✨  Limited Time Offer</text>

    <!-- 30 days big number -->
    <text x="320" y="100" text-anchor="middle" font-size="56" font-weight="900" fill="white" letter-spacing="-2" opacity="0.95">30</text>

    <!-- Label -->
    <text x="320" y="124" text-anchor="middle" font-size="20" font-weight="700" fill="white">Days Premium Free</text>

    <!-- Sub -->
    <text x="320" y="144" text-anchor="middle" font-size="12" fill="rgba(255,255,255,0.80)">No credit card required. Start your free trial today.</text>

    <!-- White CTA button -->
    <rect x="228" y="156" width="184" height="18" rx="0" fill="none"/>
    <g id="Offer-CTA" transform="translate(230,152)">
      <rect width="180" height="30" rx="8" fill="#FFFFFF"/>
      <text x="90" y="20" text-anchor="middle" font-size="13" font-weight="700" fill="#6366F1">⭐  Claim Now — It's Free</text>
    </g>
  </g>
      
  <g id="Section-Testimonials" transform="translate(0,991)">
    <rect width="640" height="248" fill="#F8FAFC"/>
    <text x="320" y="30" text-anchor="middle" font-size="10.5" font-weight="700" fill="#6366F1" letter-spacing="1.2">WHAT PEOPLE SAY</text>
    <text x="320" y="54" text-anchor="middle" font-size="22" font-weight="700" fill="#111827">Loved by Teams</text>
    
    <g id="Testimonial-Sarah-Chen" transform="translate(24,72)" filter="url(#shadow-card)">
      <rect width="284" height="148" rx="14" fill="#FFFFFF" stroke="#E5E7EB" stroke-width="1"/>
      <!-- Big quote mark -->
      <text x="266" y="42" font-size="52" fill="#EEF2FF" font-weight="900">"</text>
      <!-- Stars -->
      <path d="M14 18 l2.2 4.5 5 .7-3.6 3.5.85 5-4.45-2.3-4.45 2.3.85-5-3.6-3.5 5-.7z" fill="#F59E0B"/><path d="M31 18 l2.2 4.5 5 .7-3.6 3.5.85 5-4.45-2.3-4.45 2.3.85-5-3.6-3.5 5-.7z" fill="#F59E0B"/><path d="M48 18 l2.2 4.5 5 .7-3.6 3.5.85 5-4.45-2.3-4.45 2.3.85-5-3.6-3.5 5-.7z" fill="#F59E0B"/><path d="M65 18 l2.2 4.5 5 .7-3.6 3.5.85 5-4.45-2.3-4.45 2.3.85-5-3.6-3.5 5-.7z" fill="#F59E0B"/><path d="M82 18 l2.2 4.5 5 .7-3.6 3.5.85 5-4.45-2.3-4.45 2.3.85-5-3.6-3.5 5-.7z" fill="#F59E0B"/>
      <!-- Quote text -->
      <text x="14" y="56" font-size="10.5" fill="#111827" font-style="italic">"FlowSphere completely transformed how o</text>
      <text x="14" y="70" font-size="10.5" fill="#111827" font-style="italic">ur remote team operates. We ship 40% fas</text>
      <text x="14" y="84" font-size="10.5" fill="#111827" font-style="italic">ter now."</text>
      <!-- Author -->
      <circle cx="28" cy="122" r="16" fill="#EEF2FF"/>
      <circle cx="28" cy="118" r="6"  fill="#6366F1"/>
      <path d="M14 136C14 130.477 20.268 127 28 127s14 3.477 14 9" fill="#6366F1" opacity="0.5"/>
      <text x="50" y="117" font-size="12" font-weight="600" fill="#111827">Sarah Chen</text>
      <text x="50" y="131" font-size="10.5" fill="#6B7280">Engineering Lead @ Nexus Labs</text>
    </g>
    
    <g id="Testimonial-Marcus-Rivera" transform="translate(332,72)" filter="url(#shadow-card)">
      <rect width="284" height="148" rx="14" fill="#FFFFFF" stroke="#E5E7EB" stroke-width="1"/>
      <!-- Big quote mark -->
      <text x="266" y="42" font-size="52" fill="#EEF2FF" font-weight="900">"</text>
      <!-- Stars -->
      <path d="M14 18 l2.2 4.5 5 .7-3.6 3.5.85 5-4.45-2.3-4.45 2.3.85-5-3.6-3.5 5-.7z" fill="#F59E0B"/><path d="M31 18 l2.2 4.5 5 .7-3.6 3.5.85 5-4.45-2.3-4.45 2.3.85-5-3.6-3.5 5-.7z" fill="#F59E0B"/><path d="M48 18 l2.2 4.5 5 .7-3.6 3.5.85 5-4.45-2.3-4.45 2.3.85-5-3.6-3.5 5-.7z" fill="#F59E0B"/><path d="M65 18 l2.2 4.5 5 .7-3.6 3.5.85 5-4.45-2.3-4.45 2.3.85-5-3.6-3.5 5-.7z" fill="#F59E0B"/><path d="M82 18 l2.2 4.5 5 .7-3.6 3.5.85 5-4.45-2.3-4.45 2.3.85-5-3.6-3.5 5-.7z" fill="#F59E0B"/>
      <!-- Quote text -->
      <text x="14" y="56" font-size="10.5" fill="#111827" font-style="italic">"We replaced 3 different tools with Flow</text>
      <text x="14" y="70" font-size="10.5" fill="#111827" font-style="italic">Sphere. Setup took 10 minutes. Incredibl</text>
      <text x="14" y="84" font-size="10.5" fill="#111827" font-style="italic">e product!"</text>
      <!-- Author -->
      <circle cx="28" cy="122" r="16" fill="#F5F3FF"/>
      <circle cx="28" cy="118" r="6"  fill="#8B5CF6"/>
      <path d="M14 136C14 130.477 20.268 127 28 127s14 3.477 14 9" fill="#8B5CF6" opacity="0.5"/>
      <text x="50" y="117" font-size="12" font-weight="600" fill="#111827">Marcus Rivera</text>
      <text x="50" y="131" font-size="10.5" fill="#6B7280">Product Manager @ Velocity Inc</text>
    </g>
  </g>
      <rect y="1239" width="640" height="1" fill="#E5E7EB"/>
      
  <g id="Section-Download-App" transform="translate(0,1240)">
    <rect width="640" height="160" fill="#FFFFFF"/>
    <text x="320" y="30" text-anchor="middle" font-size="10.5" font-weight="700" fill="#6366F1" letter-spacing="1.2">GET THE APP</text>
    <text x="320" y="54" text-anchor="middle" font-size="22" font-weight="700" fill="#111827">Work From Anywhere</text>
    <text x="320" y="74" text-anchor="middle" font-size="13" fill="#6B7280">Available for iOS and Android.</text>
    
    <g transform="translate(144,100)">
      <rect width="168" height="48" rx="10" fill="#0F172A"/>
      <rect width="168" height="48" rx="10" fill="none" stroke="rgba(255,255,255,0.10)" stroke-width="1"/>
      <path d="M24 16L34 24L24 32V16Z" fill="white"/>
      <text x="48" y="25" font-size="9.5" fill="rgba(255,255,255,0.65)">GET IT ON</text>
      <text x="48" y="40" font-size="16" font-weight="700" fill="white">Google Play</text>
    </g>
    
    <g transform="translate(328,100)">
      <rect width="168" height="48" rx="10" fill="#0F172A"/>
      <rect width="168" height="48" rx="10" fill="none" stroke="rgba(255,255,255,0.10)" stroke-width="1"/>
      <path d="M24 16L34 24L24 32V16Z" fill="white"/>
      <text x="48" y="25" font-size="9.5" fill="rgba(255,255,255,0.65)">DOWNLOAD ON THE</text>
      <text x="48" y="40" font-size="16" font-weight="700" fill="white">App Store</text>
    </g>
  </g>
      
  <g id="Section-Footer" transform="translate(0,1400)">
    <rect width="640" height="180" rx="0" fill="#0F172A"/>

    <!-- Footer Logo -->
    <g transform="translate(245,20)">
      <rect x="0" y="0" width="28" height="28" rx="7" fill="url(#grad-brand)"/>
      <path d="M14 4L8 7v5c0 3.3 2.7 6 6 6s6-2.7 6-6V7l-6-3z" fill="white" fill-opacity="0.9"/>
      <text x="36" y="20" font-size="15" font-weight="700" fill="white">FlowSphere</text>
    </g>

    <!-- Social icons row -->
    
    <g id="Social-Twitter" transform="translate(241,60)">
      <rect width="32" height="32" rx="8" fill="rgba(255,255,255,0.08)" stroke="rgba(255,255,255,0.12)" stroke-width="1"/>
      <g transform="translate(8,8) scale(1)" fill="rgba(255,255,255,0.75)">
        <path d="M4 2h3l-7.3 8.3 8.6 11.4H5l-5.3-6.9L-1 2H2l4.8 6.3z"/>
      </g>
    </g>
    <g id="Social-LinkedIn" transform="translate(283,60)">
      <rect width="32" height="32" rx="8" fill="rgba(255,255,255,0.08)" stroke="rgba(255,255,255,0.12)" stroke-width="1"/>
      <g transform="translate(8,8) scale(1)" fill="rgba(255,255,255,0.75)">
        <path d="M1 1h2.7v9H1zm1.35-1.5a1.35 1.35 0 100-2.7 1.35 1.35 0 000 2.7zm4.15 1.5h2.6v1.2h.04C9.5 1.5 10.4.8 11.8.8c2.8 0 3.2 1.8 3.2 4.2V10H12.4V5.5c0-1.1-.5-2.3-1.8-2.3-1.6 0-2 1.3-2 2.3V10H6z"/>
      </g>
    </g>
    <g id="Social-GitHub" transform="translate(325,60)">
      <rect width="32" height="32" rx="8" fill="rgba(255,255,255,0.08)" stroke="rgba(255,255,255,0.12)" stroke-width="1"/>
      <g transform="translate(8,8) scale(1)" fill="rgba(255,255,255,0.75)">
        <path d="M8 0C3.6 0 0 3.6 0 8c0 3.5 2.3 6.5 5.5 7.6.4.1.5-.2.5-.4v-1.4c-2.2.5-2.7-1-2.7-1-.4-1-.9-1.2-.9-1.2-.7-.5.1-.5.1-.5.8.1 1.2.8 1.2.8.7 1.2 1.8.9 2.3.7.1-.5.3-.9.5-1.1-1.8-.2-3.6-.9-3.6-4 0-.9.3-1.6.8-2.2-.1-.2-.4-1 .1-2.1 0 0 .7-.2 2.2.8.6-.2 1.3-.3 2-.3s1.4.1 2 .3c1.5-1 2.2-.8 2.2-.8.5 1.1.2 1.9.1 2.1.5.6.8 1.3.8 2.2 0 3.1-1.9 3.8-3.7 4 .3.3.6.8.6 1.6v2.4c0 .2.1.5.6.4C13.7 14.5 16 11.5 16 8c0-4.4-3.6-8-8-8z"/>
      </g>
    </g>
    <g id="Social-Instagram" transform="translate(367,60)">
      <rect width="32" height="32" rx="8" fill="rgba(255,255,255,0.08)" stroke="rgba(255,255,255,0.12)" stroke-width="1"/>
      <g transform="translate(8,8) scale(1)" fill="rgba(255,255,255,0.75)">
        <path d="M8 0C5.8 0 5.6 0 4.7 0 3.9 0 3.3.2 2.9.3 2.4.5 2 .8 1.6 1.2 1.2 1.6.9 2 .7 2.5.6 3 .5 3.6.5 4.4c0 .9 0 1.2 0 3.6s0 2.7 0 3.6c0 .8.1 1.4.3 1.9.1.5.4.9.8 1.3.4.4.8.7 1.3.8.5.2 1.1.3 1.9.3.9 0 1.2 0 3.6 0s2.7 0 3.6 0c.8 0 1.4-.1 1.9-.3.5-.1.9-.4 1.3-.8.4-.4.7-.8.8-1.3.2-.5.3-1.1.3-1.9 0-.9 0-1.2 0-3.6s0-2.7 0-3.6c0-.8-.1-1.4-.3-1.9-.1-.5-.4-.9-.8-1.3C14.6.9 14.2.6 13.7.5 13.2.3 12.6.2 11.8.2 10.9.2 10.7.2 8.3.2 5.9.2 5.7.2 4.8.2c0 0-.7 0 0 0zM8 2a6 6 0 100 12A6 6 0 008 2zm0 2a4 4 0 110 8 4 4 0 010-8zm6.4-2.2a1.4 1.4 0 100 2.8 1.4 1.4 0 000-2.8z"/>
      </g>
    </g>

    <!-- Contact -->
    <text x="320" y="114" text-anchor="middle" font-size="12" fill="rgba(255,255,255,0.55)">hello@flowsphere.io  ·  flowsphere.io</text>

    <!-- Footer links -->
    <text x="210" y="135" font-size="11" fill="rgba(255,255,255,0.35)">Privacy Policy</text>
    <text x="302"  y="135" font-size="11" fill="rgba(255,255,255,0.25)">·</text>
    <text x="310"  y="135" font-size="11" fill="rgba(255,255,255,0.35)">Terms of Service</text>
    <text x="405"  y="135" font-size="11" fill="rgba(255,255,255,0.25)">·</text>
    <text x="415"  y="135" font-size="11" fill="rgba(255,255,255,0.35)">Unsubscribe</text>

    <!-- Copyright -->
    <text x="320" y="158" text-anchor="middle" font-size="10" fill="rgba(255,255,255,0.22)">© 2025 FlowSphere, Inc. All rights reserved.</text>
    <text x="320" y="172" text-anchor="middle" font-size="10" fill="rgba(255,255,255,0.18)">CODSOFT UI/UX Internship · Task 2 · Designed by Noor Mohamed Halith</text>
  </g>
    </g>
  </g>
  
</svg>