<?xml version="1.0" encoding="UTF-8"?>
<svg width="415" height="1642" viewBox="0 0 415 1642"
     fill="none" xmlns="http://www.w3.org/2000/svg"
     xmlns:xlink="http://www.w3.org/1999/xlink">
  <title>FlowSphere — Full Mobile Email (375px)</title>
  <defs>
    <style>
      @import url('https://fonts.googleapis.com/css2?family=Inter:wght@400;500;600;700;800;900&amp;display=swap');
      text { font-family: 'Inter', -apple-system, BlinkMacSystemFont, 'Segoe UI', sans-serif; }
    </style>
    <!-- Brand gradient -->
    <linearGradient id="grad-brand" x1="0%" y1="0%" x2="100%" y2="100%">
      <stop offset="0%"   stop-color="#6366F1"/>
      <stop offset="100%" stop-color="#8B5CF6"/>
    </linearGradient>
    <!-- Hero bg gradient -->
    <linearGradient id="grad-hero-bg" x1="0%" y1="0%" x2="100%" y2="100%">
      <stop offset="0%"   stop-color="#EEF2FF"/>
      <stop offset="100%" stop-color="#F5F3FF"/>
    </linearGradient>
    <!-- White fade gradient for offer orbs -->
    <radialGradient id="orb1" cx="50%" cy="50%" r="50%">
      <stop offset="0%"   stop-color="rgba(255,255,255,0.12)"/>
      <stop offset="100%" stop-color="rgba(255,255,255,0)"/>
    </radialGradient>
    <!-- Drop shadows -->
    <filter id="shadow-card" x="-8%" y="-8%" width="116%" height="116%">
      <feDropShadow dx="0" dy="2" stdDeviation="8" flood-color="rgba(99,102,241,0.10)"/>
    </filter>
    <filter id="shadow-btn" x="-20%" y="-40%" width="140%" height="180%">
      <feDropShadow dx="0" dy="6" stdDeviation="12" flood-color="rgba(99,102,241,0.35)"/>
    </filter>
    <filter id="shadow-float" x="-15%" y="-15%" width="130%" height="130%">
      <feDropShadow dx="0" dy="8" stdDeviation="20" flood-color="rgba(99,102,241,0.18)"/>
    </filter>
    <filter id="shadow-sm" x="-5%" y="-5%" width="110%" height="110%">
      <feDropShadow dx="0" dy="1" stdDeviation="3" flood-color="rgba(0,0,0,0.08)"/>
    </filter>
  </defs>

  <rect width="415" height="1642" fill="#EAECF8"/>
  <g filter="url(#shadow-float)" transform="translate(20,40)">
    <rect width="375" height="1562" rx="0" fill="#FFFFFF"/>
  </g>
  <g transform="translate(20,40)">
    <clipPath id="email-clip-m"><rect width="375" height="1562"/></clipPath>
    <g clip-path="url(#email-clip-m)">
      <!-- Mobile header (simplified) -->
      <rect width="375" height="56" fill="#FFFFFF"/>
      <line x1="0" y1="55.5" x2="375" y2="55.5" stroke="#E5E7EB" stroke-width="1"/>
      <rect x="12" y="12" width="28" height="28" rx="7" fill="url(#grad-brand)"/>
      <path d="M26 14l-6 3v5a8 8 0 0012 0v-5l-6-3z" fill="white" fill-opacity="0.9"/>
      <text x="46" y="31" font-size="15" font-weight="800" fill="url(#grad-brand)">FlowSphere</text>
      <text x="297" y="31" font-size="10.5" font-weight="500" fill="#6B7280">Features</text>
      <text x="340" y="31" font-size="10.5" font-weight="500" fill="#6B7280">Menu</text>

      
    <g id="M-Hero" transform="translate(0,56)">
      <rect width="375" height="400" fill="url(#grad-hero-bg)"/>
      <circle cx="345" cy="30" r="80" fill="url(#orb1)"/>
      <rect x="117.5" y="18" width="140" height="24" rx="12" fill="#FFFFFF" stroke="#EEF2FF" stroke-width="1"/>
      <circle cx="135.5" cy="30" r="4" fill="#22C55E"/>
      <text x="147.5" y="34" font-size="10" font-weight="600" fill="#6366F1">🚀 Product Launch</text>
      <text x="187.5" y="78" text-anchor="middle" font-size="24" font-weight="800" fill="#111827" letter-spacing="-0.5">Welcome to</text>
      <text x="187.5" y="108" text-anchor="middle" font-size="24" font-weight="800" fill="url(#grad-brand)" letter-spacing="-0.5">FlowSphere</text>
      <text x="187.5" y="130" text-anchor="middle" font-size="13" fill="#6B7280">Organize your work smarter</text>
      <text x="187.5" y="146" text-anchor="middle" font-size="13" fill="#6B7280">and achieve more every day.</text>
      <!-- Mini dashboard illustration -->
      <g transform="translate(47.5,158)">
        <rect width="280" height="170" rx="12" fill="#F8FAFC"/>
        <rect width="90" height="170" rx="12" fill="#FFFFFF"/>
        <rect x="8" y="10" width="74" height="26" rx="7" fill="#EEF2FF"/>
        <rect x="14" y="14" width="13" height="13" rx="4" fill="url(#grad-brand)"/>
        <rect x="32" y="17" width="40" height="6" rx="3" fill="#6366F1"/>
        <circle cx="18" cy="52" r="3.5" fill="#6366F1"/>
        <rect x="27" y="48" width="40" height="6" rx="3" fill="#6366F1" opacity="0.5"/>
        <circle cx="18" cy="68" r="3.5" fill="#8B5CF6" opacity="0.5"/>
        <rect x="27" y="64" width="32" height="6" rx="3" fill="#6B7280" opacity="0.35"/>
        <circle cx="18" cy="84" r="3.5" fill="#22C55E" opacity="0.7"/>
        <rect x="27" y="80" width="45" height="6" rx="3" fill="#6B7280" opacity="0.35"/>
        <!-- Stats on right -->
        <rect x="98" y="10" width="84" height="52" rx="8" fill="#FFFFFF" stroke="#E5E7EB" stroke-width="1"/>
        <rect x="108" y="20" width="40" height="5" rx="2.5" fill="#6B7280" opacity="0.3"/>
        <rect x="108" y="30" width="58" height="12" rx="3" fill="#6366F1" opacity="0.8"/>
        <rect x="108" y="48" width="30" height="5" rx="2.5" fill="#22C55E" opacity="0.6"/>
        <rect x="190" y="10" width="82" height="52" rx="8" fill="#FFFFFF" stroke="#E5E7EB" stroke-width="1"/>
        <rect x="200" y="20" width="50" height="5" rx="2.5" fill="#6B7280" opacity="0.3"/>
        <rect x="200" y="30" width="44" height="12" rx="3" fill="#8B5CF6" opacity="0.7"/>
        <rect x="200" y="48" width="36" height="5" rx="2.5" fill="#22C55E" opacity="0.6"/>
        <!-- Task list -->
        <rect x="98" y="70" width="174" height="90" rx="8" fill="#FFFFFF" stroke="#E5E7EB" stroke-width="1"/>
        <rect x="108" y="80" width="60" height="7" rx="3" fill="#111827" opacity="0.7"/>
        <rect x="108" y="96" width="10" height="10" rx="3" fill="#6366F1"/>
        <rect x="124" y="98" width="100" height="6" rx="3" fill="#6B7280" opacity="0.4"/>
        <rect x="108" y="114" width="10" height="10" rx="3" fill="#22C55E"/>
        <rect x="124" y="116" width="80" height="6" rx="3" fill="#6B7280" opacity="0.4"/>
        <rect x="108" y="132" width="10" height="10" rx="3" fill="#F59E0B" opacity="0.8"/>
        <rect x="124" y="134" width="110" height="6" rx="3" fill="#6B7280" opacity="0.4"/>
      </g>
      <!-- CTA -->
      <g transform="translate(107.5,342)" filter="url(#shadow-btn)">
        <rect width="160" height="42" rx="10" fill="url(#grad-brand)"/>
        <text x="80" y="26" text-anchor="middle" font-size="13.5" font-weight="600" fill="white">→ Get Started Free</text>
      </g>
    </g>
      
    <g id="M-Features" transform="translate(0,456)">
      <rect width="375" height="244" fill="#FFFFFF"/>
      <text x="187.5" y="26" text-anchor="middle" font-size="10" font-weight="700" fill="#6366F1" letter-spacing="1.1">EVERYTHING YOU NEED</text>
      
      <g transform="translate(16,38)">
        <rect width="343" height="64" rx="12" fill="#F8FAFC" stroke="#E5E7EB" stroke-width="1"/>
        <rect x="12" y="12" width="40" height="40" rx="9" fill="#EEF2FF"/>
        <rect x="20" y="26" width="24" height="4" rx="2" fill="#6366F1"/>
        <rect x="20" y="34" width="16" height="4" rx="2" fill="#6366F1" opacity="0.5"/>
        <text x="68" y="30" font-size="12.5" font-weight="700" fill="#111827">Smart Task Management</text>
        <text x="68" y="46" font-size="11" fill="#6B7280">AI-powered task management.</text>
      </g>
      <g transform="translate(16,114)">
        <rect width="343" height="64" rx="12" fill="#F8FAFC" stroke="#E5E7EB" stroke-width="1"/>
        <rect x="12" y="12" width="40" height="40" rx="9" fill="#F5F3FF"/>
        <rect x="20" y="26" width="24" height="4" rx="2" fill="#8B5CF6"/>
        <rect x="20" y="34" width="16" height="4" rx="2" fill="#8B5CF6" opacity="0.5"/>
        <text x="68" y="30" font-size="12.5" font-weight="700" fill="#111827">Team Collaboration</text>
        <text x="68" y="46" font-size="11" fill="#6B7280">Real-time collaboration.</text>
      </g>
      <g transform="translate(16,190)">
        <rect width="343" height="64" rx="12" fill="#F8FAFC" stroke="#E5E7EB" stroke-width="1"/>
        <rect x="12" y="12" width="40" height="40" rx="9" fill="#ECFDF5"/>
        <rect x="20" y="26" width="24" height="4" rx="2" fill="#22C55E"/>
        <rect x="20" y="34" width="16" height="4" rx="2" fill="#22C55E" opacity="0.5"/>
        <text x="68" y="30" font-size="12.5" font-weight="700" fill="#111827">Productivity Analytics</text>
        <text x="68" y="46" font-size="11" fill="#6B7280">Deep insights & reports.</text>
      </g>
    </g>
      
    <g id="M-Offer" transform="translate(0,724)">
      <rect width="375" height="176" fill="#FFFFFF"/>
      <rect x="14" y="12" width="347" height="152" rx="18" fill="url(#grad-brand)"/>
      <circle cx="331" cy="36" r="80" fill="url(#orb1)"/>
      <rect x="125.5" y="24" width="124" height="22" rx="11" fill="rgba(255,255,255,0.18)" stroke="rgba(255,255,255,0.28)" stroke-width="1"/>
      <text x="187.5" y="39" text-anchor="middle" font-size="10" font-weight="700" fill="white" letter-spacing="0.3">✨ Limited Time Offer</text>
      <text x="187.5" y="85" text-anchor="middle" font-size="48" font-weight="900" fill="white" letter-spacing="-2">30</text>
      <text x="187.5" y="110" text-anchor="middle" font-size="18" font-weight="700" fill="white">Days Premium Free</text>
      <text x="187.5" y="128" text-anchor="middle" font-size="11" fill="rgba(255,255,255,0.75)">No credit card required.</text>
      <g transform="translate(107.5,138)">
        <rect width="160" height="26" rx="7" fill="#FFFFFF"/>
        <text x="80" y="17" text-anchor="middle" font-size="12" font-weight="700" fill="#6366F1">Claim Now — Free</text>
      </g>
    </g>
      
    <g id="M-Testimonials" transform="translate(0,900)">
      <rect width="375" height="316" fill="#F8FAFC"/>
      <text x="187.5" y="26" text-anchor="middle" font-size="10" font-weight="700" fill="#6366F1" letter-spacing="1.1">WHAT PEOPLE SAY</text>
      <text x="187.5" y="48" text-anchor="middle" font-size="20" font-weight="700" fill="#111827">Loved by Teams</text>
      <!-- Card 1 -->
      <g transform="translate(16,60)">
        <rect width="343" height="114" rx="12" fill="#FFFFFF" stroke="#E5E7EB" stroke-width="1"/>
        <path d="M14 14l1.9 3.8 4.2.6-3 3 .7 4.2-3.8-2-3.8 2 .7-4.2-3-3 4.2-.6z" fill="#F59E0B"/><path d="M29 14l1.9 3.8 4.2.6-3 3 .7 4.2-3.8-2-3.8 2 .7-4.2-3-3 4.2-.6z" fill="#F59E0B"/><path d="M44 14l1.9 3.8 4.2.6-3 3 .7 4.2-3.8-2-3.8 2 .7-4.2-3-3 4.2-.6z" fill="#F59E0B"/><path d="M59 14l1.9 3.8 4.2.6-3 3 .7 4.2-3.8-2-3.8 2 .7-4.2-3-3 4.2-.6z" fill="#F59E0B"/><path d="M74 14l1.9 3.8 4.2.6-3 3 .7 4.2-3.8-2-3.8 2 .7-4.2-3-3 4.2-.6z" fill="#F59E0B"/>
        <text x="14" y="50" font-size="10.5" fill="#111827" font-style="italic">"FlowSphere transformed how our remote</text>
        <text x="14" y="63" font-size="10.5" fill="#111827" font-style="italic">team operates. We ship 40% faster now."</text>
        <circle cx="28" cy="92" r="12" fill="#EEF2FF"/>
        <circle cx="28" cy="88" r="5" fill="#6366F1"/>
        <text x="46" y="88" font-size="11" font-weight="600" fill="#111827">Sarah Chen</text>
        <text x="46" y="100" font-size="10" fill="#6B7280">Engineering Lead @ Nexus Labs</text>
      </g>
      <!-- Card 2 -->
      <g transform="translate(16,184)">
        <rect width="343" height="114" rx="12" fill="#FFFFFF" stroke="#E5E7EB" stroke-width="1"/>
        <path d="M14 14l1.9 3.8 4.2.6-3 3 .7 4.2-3.8-2-3.8 2 .7-4.2-3-3 4.2-.6z" fill="#F59E0B"/><path d="M29 14l1.9 3.8 4.2.6-3 3 .7 4.2-3.8-2-3.8 2 .7-4.2-3-3 4.2-.6z" fill="#F59E0B"/><path d="M44 14l1.9 3.8 4.2.6-3 3 .7 4.2-3.8-2-3.8 2 .7-4.2-3-3 4.2-.6z" fill="#F59E0B"/><path d="M59 14l1.9 3.8 4.2.6-3 3 .7 4.2-3.8-2-3.8 2 .7-4.2-3-3 4.2-.6z" fill="#F59E0B"/><path d="M74 14l1.9 3.8 4.2.6-3 3 .7 4.2-3.8-2-3.8 2 .7-4.2-3-3 4.2-.6z" fill="#F59E0B"/>
        <text x="14" y="50" font-size="10.5" fill="#111827" font-style="italic">"We replaced 3 different tools with</text>
        <text x="14" y="63" font-size="10.5" fill="#111827" font-style="italic">FlowSphere. Setup took 10 minutes!"</text>
        <circle cx="28" cy="92" r="12" fill="#F5F3FF"/>
        <circle cx="28" cy="88" r="5" fill="#8B5CF6"/>
        <text x="46" y="88" font-size="11" font-weight="600" fill="#111827">Marcus Rivera</text>
        <text x="46" y="100" font-size="10" fill="#6B7280">Product Manager @ Velocity Inc</text>
      </g>
    </g>
      
    <g id="M-Download" transform="translate(0,1216)">
      <rect width="375" height="186" fill="#FFFFFF"/>
      <text x="187.5" y="28" text-anchor="middle" font-size="10" font-weight="700" fill="#6366F1" letter-spacing="1.1">GET THE APP</text>
      <text x="187.5" y="52" text-anchor="middle" font-size="20" font-weight="700" fill="#111827">Work From Anywhere</text>
      <text x="187.5" y="72" text-anchor="middle" font-size="12" fill="#6B7280">Available for iOS and Android.</text>
      <!-- Stacked badges -->
      <g transform="translate(103.5,86)">
        <rect width="168" height="42" rx="9" fill="#0F172A"/>
        <path d="M20 13L28 21L20 29V13Z" fill="white"/>
        <text x="40" y="24" font-size="8.5" fill="rgba(255,255,255,0.65)">GET IT ON</text>
        <text x="40" y="35" font-size="14" font-weight="700" fill="white">Google Play</text>
      </g>
      <g transform="translate(103.5,136)">
        <rect width="168" height="42" rx="9" fill="#0F172A"/>
        <path d="M20 13L28 21L20 29V13Z" fill="white"/>
        <text x="40" y="24" font-size="8.5" fill="rgba(255,255,255,0.65)">DOWNLOAD ON THE</text>
        <text x="40" y="35" font-size="14" font-weight="700" fill="white">App Store</text>
      </g>
    </g>
      
    <g id="M-Footer" transform="translate(0,1402)">
      <rect width="375" height="160" fill="#0F172A"/>
      <g transform="translate(122.5,14)">
        <rect width="24" height="24" rx="6" fill="url(#grad-brand)"/>
        <text x="30" y="18" font-size="14" font-weight="700" fill="white">FlowSphere</text>
      </g>
      
      <g transform="translate(112.5,50)">
        <rect width="30" height="30" rx="7" fill="rgba(255,255,255,0.08)" stroke="rgba(255,255,255,0.12)" stroke-width="1"/>
        <circle cx="15" cy="15" r="5" fill="rgba(255,255,255,0.5)"/>
      </g>
      <g transform="translate(152.5,50)">
        <rect width="30" height="30" rx="7" fill="rgba(255,255,255,0.08)" stroke="rgba(255,255,255,0.12)" stroke-width="1"/>
        <circle cx="15" cy="15" r="5" fill="rgba(255,255,255,0.5)"/>
      </g>
      <g transform="translate(192.5,50)">
        <rect width="30" height="30" rx="7" fill="rgba(255,255,255,0.08)" stroke="rgba(255,255,255,0.12)" stroke-width="1"/>
        <circle cx="15" cy="15" r="5" fill="rgba(255,255,255,0.5)"/>
      </g>
      <g transform="translate(232.5,50)">
        <rect width="30" height="30" rx="7" fill="rgba(255,255,255,0.08)" stroke="rgba(255,255,255,0.12)" stroke-width="1"/>
        <circle cx="15" cy="15" r="5" fill="rgba(255,255,255,0.5)"/>
      </g>
      <text x="187.5" y="98" text-anchor="middle" font-size="11" fill="rgba(255,255,255,0.50)">hello@flowsphere.io · flowsphere.io</text>
      <text x="187.5" y="116" text-anchor="middle" font-size="10" fill="rgba(255,255,255,0.30)">Privacy · Terms · Unsubscribe</text>
      <text x="187.5" y="136" text-anchor="middle" font-size="9.5" fill="rgba(255,255,255,0.18)">© 2025 FlowSphere, Inc. All rights reserved.</text>
      <text x="187.5" y="150" text-anchor="middle" font-size="9" fill="rgba(255,255,255,0.14)">CODSOFT UI/UX Task 2 · Noor Mohamed Halith</text>
    </g>
    </g>
  </g>
</svg>