<?xml version="1.0" encoding="UTF-8"?>
<svg width="760" height="340" viewBox="0 0 760 340" fill="none"
  xmlns="http://www.w3.org/2000/svg"
  xmlns:xlink="http://www.w3.org/1999/xlink">

  <defs>
    <linearGradient id="header-grad" x1="0%" y1="0%" x2="100%" y2="0%">
      <stop offset="0%" style="stop-color:#6366F1"/>
      <stop offset="100%" style="stop-color:#8B5CF6"/>
    </linearGradient>
  </defs>
  <!-- Header -->
  <rect width="760" height="50" fill="url(#header-grad)"/>
  <text x="24" y="32" font-family="Inter,sans-serif" font-size="18" fill="white" font-weight="700">FlowSphere — Color Palette</text>
  <text x="620" y="32" font-family="Inter,sans-serif" font-size="12" fill="rgba(255,255,255,0.7)">Task 2 Design System</text>
  
    <g transform="translate(20, 60)">
      <rect width="160" height="90" rx="12" fill="#6366F1"/>
      <rect width="160" height="30" rx="0 0 12 12" fill="rgba(0,0,0,0.08)" transform="translate(0,60)"/>
      <text x="12" y="82" font-family="Inter,sans-serif" font-size="12" fill="#FFFFFF" font-weight="600">Primary</text>
      <text x="12" y="97" font-family="Inter,sans-serif" font-size="11" fill="#FFFFFF" opacity="0.7">#6366F1</text>
    </g>

    <g transform="translate(200, 60)">
      <rect width="160" height="90" rx="12" fill="#8B5CF6"/>
      <rect width="160" height="30" rx="0 0 12 12" fill="rgba(0,0,0,0.08)" transform="translate(0,60)"/>
      <text x="12" y="82" font-family="Inter,sans-serif" font-size="12" fill="#FFFFFF" font-weight="600">Secondary</text>
      <text x="12" y="97" font-family="Inter,sans-serif" font-size="11" fill="#FFFFFF" opacity="0.7">#8B5CF6</text>
    </g>

    <g transform="translate(380, 60)">
      <rect width="160" height="90" rx="12" fill="#22C55E"/>
      <rect width="160" height="30" rx="0 0 12 12" fill="rgba(0,0,0,0.08)" transform="translate(0,60)"/>
      <text x="12" y="82" font-family="Inter,sans-serif" font-size="12" fill="#FFFFFF" font-weight="600">Success</text>
      <text x="12" y="97" font-family="Inter,sans-serif" font-size="11" fill="#FFFFFF" opacity="0.7">#22C55E</text>
    </g>

    <g transform="translate(560, 60)">
      <rect width="160" height="90" rx="12" fill="#FFFFFF" stroke="#E5E7EB" stroke-width="1"/>
      <rect width="160" height="30" rx="0 0 12 12" fill="rgba(0,0,0,0.08)" transform="translate(0,60)"/>
      <text x="12" y="82" font-family="Inter,sans-serif" font-size="12" fill="#111827" font-weight="600">Background</text>
      <text x="12" y="97" font-family="Inter,sans-serif" font-size="11" fill="#111827" opacity="0.7">#FFFFFF</text>
    </g>

    <g transform="translate(20, 190)">
      <rect width="160" height="90" rx="12" fill="#F8FAFC" stroke="#E5E7EB" stroke-width="1"/>
      <rect width="160" height="30" rx="0 0 12 12" fill="rgba(0,0,0,0.08)" transform="translate(0,60)"/>
      <text x="12" y="82" font-family="Inter,sans-serif" font-size="12" fill="#111827" font-weight="600">Surface</text>
      <text x="12" y="97" font-family="Inter,sans-serif" font-size="11" fill="#111827" opacity="0.7">#F8FAFC</text>
    </g>

    <g transform="translate(200, 190)">
      <rect width="160" height="90" rx="12" fill="#111827"/>
      <rect width="160" height="30" rx="0 0 12 12" fill="rgba(0,0,0,0.08)" transform="translate(0,60)"/>
      <text x="12" y="82" font-family="Inter,sans-serif" font-size="12" fill="#FFFFFF" font-weight="600">Text</text>
      <text x="12" y="97" font-family="Inter,sans-serif" font-size="11" fill="#FFFFFF" opacity="0.7">#111827</text>
    </g>

    <g transform="translate(380, 190)">
      <rect width="160" height="90" rx="12" fill="#6B7280"/>
      <rect width="160" height="30" rx="0 0 12 12" fill="rgba(0,0,0,0.08)" transform="translate(0,60)"/>
      <text x="12" y="82" font-family="Inter,sans-serif" font-size="12" fill="#FFFFFF" font-weight="600">Gray</text>
      <text x="12" y="97" font-family="Inter,sans-serif" font-size="11" fill="#FFFFFF" opacity="0.7">#6B7280</text>
    </g>

    <g transform="translate(560, 190)">
      <rect width="160" height="90" rx="12" fill="#E5E7EB"/>
      <rect width="160" height="30" rx="0 0 12 12" fill="rgba(0,0,0,0.08)" transform="translate(0,60)"/>
      <text x="12" y="82" font-family="Inter,sans-serif" font-size="12" fill="#111827" font-weight="600">Border</text>
      <text x="12" y="97" font-family="Inter,sans-serif" font-size="11" fill="#111827" opacity="0.7">#E5E7EB</text>
    </g>
  
</svg>