<?xml version="1.0" encoding="UTF-8"?>
<svg width="760" height="530" viewBox="0 0 760 530" fill="none"
  xmlns="http://www.w3.org/2000/svg"
  xmlns:xlink="http://www.w3.org/1999/xlink">

  <defs>
    <linearGradient id="sp-grad" x1="0%" y1="0%" x2="100%" y2="0%">
      <stop offset="0%" style="stop-color:#6366F1"/>
      <stop offset="100%" style="stop-color:#8B5CF6"/>
    </linearGradient>
  </defs>
  <rect width="760" height="50" fill="url(#sp-grad)"/>
  <text x="24" y="32" font-family="Inter,sans-serif" font-size="18" fill="white" font-weight="700">FlowSphere — Spacing Tokens</text>
  <rect x="20" y="56" width="720" height="20" fill="#EEF2FF"/>
  <text x="36" y="70" font-family="Inter,sans-serif" font-size="10" fill="#6366F1" font-weight="700">TOKEN</text>
  <text x="160" y="70" font-family="Inter,sans-serif" font-size="10" fill="#6366F1" font-weight="700">VALUE</text>
  <text x="220" y="70" font-family="Inter,sans-serif" font-size="10" fill="#6366F1" font-weight="700">VISUAL</text>
  
    <rect x="20" y="80" width="720" height="36" rx="6" fill="#F8FAFC"/>
    <text x="36" y="102" font-family="Inter,sans-serif" font-size="11" fill="#6366F1" font-weight="600">--sp-1</text>
    <text x="160" y="102" font-family="Inter,sans-serif" font-size="11" fill="#6B7280">4px</text>
    <rect x="220" y="90" width="12" height="16" rx="4" fill="#6366F1" opacity="0.75"/>
    

    <rect x="20" y="124" width="720" height="36" rx="6" fill="white"/>
    <text x="36" y="146" font-family="Inter,sans-serif" font-size="11" fill="#6366F1" font-weight="600">--sp-2</text>
    <text x="160" y="146" font-family="Inter,sans-serif" font-size="11" fill="#6B7280">8px</text>
    <rect x="220" y="134" width="24" height="16" rx="4" fill="#6366F1" opacity="0.75"/>
    

    <rect x="20" y="168" width="720" height="36" rx="6" fill="#F8FAFC"/>
    <text x="36" y="190" font-family="Inter,sans-serif" font-size="11" fill="#6366F1" font-weight="600">--sp-3</text>
    <text x="160" y="190" font-family="Inter,sans-serif" font-size="11" fill="#6B7280">12px</text>
    <rect x="220" y="178" width="36" height="16" rx="4" fill="#6366F1" opacity="0.75"/>
    

    <rect x="20" y="212" width="720" height="36" rx="6" fill="white"/>
    <text x="36" y="234" font-family="Inter,sans-serif" font-size="11" fill="#6366F1" font-weight="600">--sp-4</text>
    <text x="160" y="234" font-family="Inter,sans-serif" font-size="11" fill="#6B7280">16px</text>
    <rect x="220" y="222" width="48" height="16" rx="4" fill="#6366F1" opacity="0.75"/>
    

    <rect x="20" y="256" width="720" height="36" rx="6" fill="#F8FAFC"/>
    <text x="36" y="278" font-family="Inter,sans-serif" font-size="11" fill="#6366F1" font-weight="600">--sp-5</text>
    <text x="160" y="278" font-family="Inter,sans-serif" font-size="11" fill="#6B7280">20px</text>
    <rect x="220" y="266" width="60" height="16" rx="4" fill="#6366F1" opacity="0.75"/>
    

    <rect x="20" y="300" width="720" height="36" rx="6" fill="white"/>
    <text x="36" y="322" font-family="Inter,sans-serif" font-size="11" fill="#6366F1" font-weight="600">--sp-6</text>
    <text x="160" y="322" font-family="Inter,sans-serif" font-size="11" fill="#6B7280">24px</text>
    <rect x="220" y="310" width="72" height="16" rx="4" fill="#6366F1" opacity="0.75"/>
    

    <rect x="20" y="344" width="720" height="36" rx="6" fill="#F8FAFC"/>
    <text x="36" y="366" font-family="Inter,sans-serif" font-size="11" fill="#6366F1" font-weight="600">--sp-8</text>
    <text x="160" y="366" font-family="Inter,sans-serif" font-size="11" fill="#6B7280">32px</text>
    <rect x="220" y="354" width="96" height="16" rx="4" fill="#6366F1" opacity="0.75"/>
    

    <rect x="20" y="388" width="720" height="36" rx="6" fill="white"/>
    <text x="36" y="410" font-family="Inter,sans-serif" font-size="11" fill="#6366F1" font-weight="600">--sp-10</text>
    <text x="160" y="410" font-family="Inter,sans-serif" font-size="11" fill="#6B7280">40px</text>
    <rect x="220" y="398" width="120" height="16" rx="4" fill="#6366F1" opacity="0.75"/>
    

    <rect x="20" y="432" width="720" height="36" rx="6" fill="#F8FAFC"/>
    <text x="36" y="454" font-family="Inter,sans-serif" font-size="11" fill="#6366F1" font-weight="600">--sp-12</text>
    <text x="160" y="454" font-family="Inter,sans-serif" font-size="11" fill="#6B7280">48px</text>
    <rect x="220" y="442" width="144" height="16" rx="4" fill="#6366F1" opacity="0.75"/>
    

    <rect x="20" y="476" width="720" height="36" rx="6" fill="white"/>
    <text x="36" y="498" font-family="Inter,sans-serif" font-size="11" fill="#6366F1" font-weight="600">--sp-16</text>
    <text x="160" y="498" font-family="Inter,sans-serif" font-size="11" fill="#6B7280">64px</text>
    <rect x="220" y="486" width="192" height="16" rx="4" fill="#6366F1" opacity="0.75"/>
    
  
</svg>